# xmcd
#
# Track frame offsets: 
#        150
#        9743
#        21653
#        35512
#        44638
#        53932
#        64344
#        80062
#        92358
#        117254
#        154283
#        178202
#
# Disc length: 3166 seconds
#
# Revision: 0
# Processed by: cddbd v1.5.2PL0 Copyright (c) Steve Scherf et al.
# Submitted via: ExactAudioCopy v0.99pb5
#
DISCID=aa0c5c0c
DTITLE=Nashville Pussy - Live in Rennes, France 1998
DYEAR=1998
DGENRE=Rock and Roll
TTITLE0=First I Look at the Purse
TTITLE1=Wrong Side of a Gun
TTITLE2=Eat My Dust
TTITLE3=Blowjob from a Rattlesnake
TTITLE4=Going Down
TTITLE5=I'm The Man
TTITLE6=Texas Border
TTITLE7=Go Motherfucker Go
TTITLE8=Bad Boy Boogie
TTITLE9=Fried Chicken and Coffee
TTITLE10=Milkcow Blues
TTITLE11=Wang Dang Sweet Poontang
EXTD=
EXTT0=
EXTT1=
EXTT2=
EXTT3=
EXTT4=
EXTT5=
EXTT6=
EXTT7=
EXTT8=
EXTT9=
EXTT10=
EXTT11=
PLAYORDER=
